<mxfile host="app.diagrams.net" modified="2024-01-23T07:12:31.348Z" agent="Mozilla/5.0 (Windows NT 10.0; Win64; x64) AppleWebKit/537.36 (KHTML, like Gecko) Chrome/120.0.0.0 Safari/537.36" etag="D_6C8p-j1rFk5qguVxyd" version="22.1.20" type="github">
  <diagram id="C5RBs43oDa-KdzZeNtuy" name="Page-1">
    <mxGraphModel dx="2391" dy="1103" grid="1" gridSize="10" guides="1" tooltips="1" connect="1" arrows="1" fold="1" page="1" pageScale="1" pageWidth="827" pageHeight="1169" math="0" shadow="0">
      <root>
        <mxCell id="WIyWlLk6GJQsqaUBKTNV-0" />
        <mxCell id="WIyWlLk6GJQsqaUBKTNV-1" parent="WIyWlLk6GJQsqaUBKTNV-0" />
        <mxCell id="pIJCKVKDnA2mxdf652Jw-0" value="AnimationSystem" style="swimlane;fontStyle=1;align=center;verticalAlign=top;childLayout=stackLayout;horizontal=1;startSize=24.63157894736842;horizontalStack=0;resizeParent=1;resizeParentMax=0;resizeLast=0;collapsible=0;marginBottom=0;" vertex="1" parent="WIyWlLk6GJQsqaUBKTNV-1">
          <mxGeometry x="567" y="520" width="171" height="236.63157894736844" as="geometry" />
        </mxCell>
        <mxCell id="pIJCKVKDnA2mxdf652Jw-1" value="+SkeletalMesh" style="text;strokeColor=none;fillColor=none;align=left;verticalAlign=top;spacingLeft=4;spacingRight=4;overflow=hidden;rotatable=0;points=[[0,0.5],[1,0.5]];portConstraint=eastwest;" vertex="1" parent="pIJCKVKDnA2mxdf652Jw-0">
          <mxGeometry y="24.63157894736842" width="171" height="25" as="geometry" />
        </mxCell>
        <mxCell id="pIJCKVKDnA2mxdf652Jw-2" value="+AnimationBlueprint" style="text;strokeColor=none;fillColor=none;align=left;verticalAlign=top;spacingLeft=4;spacingRight=4;overflow=hidden;rotatable=0;points=[[0,0.5],[1,0.5]];portConstraint=eastwest;" vertex="1" parent="pIJCKVKDnA2mxdf652Jw-0">
          <mxGeometry y="49.631578947368425" width="171" height="25" as="geometry" />
        </mxCell>
        <mxCell id="pIJCKVKDnA2mxdf652Jw-3" value="+AnimationSequences" style="text;strokeColor=none;fillColor=none;align=left;verticalAlign=top;spacingLeft=4;spacingRight=4;overflow=hidden;rotatable=0;points=[[0,0.5],[1,0.5]];portConstraint=eastwest;" vertex="1" parent="pIJCKVKDnA2mxdf652Jw-0">
          <mxGeometry y="74.63157894736842" width="171" height="25" as="geometry" />
        </mxCell>
        <mxCell id="pIJCKVKDnA2mxdf652Jw-4" value="+StateMachines" style="text;strokeColor=none;fillColor=none;align=left;verticalAlign=top;spacingLeft=4;spacingRight=4;overflow=hidden;rotatable=0;points=[[0,0.5],[1,0.5]];portConstraint=eastwest;" vertex="1" parent="pIJCKVKDnA2mxdf652Jw-0">
          <mxGeometry y="99.63157894736842" width="171" height="25" as="geometry" />
        </mxCell>
        <mxCell id="pIJCKVKDnA2mxdf652Jw-5" value="+AnimationNotifies" style="text;strokeColor=none;fillColor=none;align=left;verticalAlign=top;spacingLeft=4;spacingRight=4;overflow=hidden;rotatable=0;points=[[0,0.5],[1,0.5]];portConstraint=eastwest;" vertex="1" parent="pIJCKVKDnA2mxdf652Jw-0">
          <mxGeometry y="124.63157894736842" width="171" height="25" as="geometry" />
        </mxCell>
        <mxCell id="pIJCKVKDnA2mxdf652Jw-6" value="+AnimationLayers" style="text;strokeColor=none;fillColor=none;align=left;verticalAlign=top;spacingLeft=4;spacingRight=4;overflow=hidden;rotatable=0;points=[[0,0.5],[1,0.5]];portConstraint=eastwest;" vertex="1" parent="pIJCKVKDnA2mxdf652Jw-0">
          <mxGeometry y="149.63157894736844" width="171" height="25" as="geometry" />
        </mxCell>
        <mxCell id="pIJCKVKDnA2mxdf652Jw-7" value="+AnimationMontages" style="text;strokeColor=none;fillColor=none;align=left;verticalAlign=top;spacingLeft=4;spacingRight=4;overflow=hidden;rotatable=0;points=[[0,0.5],[1,0.5]];portConstraint=eastwest;" vertex="1" parent="pIJCKVKDnA2mxdf652Jw-0">
          <mxGeometry y="174.63157894736844" width="171" height="25" as="geometry" />
        </mxCell>
        <mxCell id="pIJCKVKDnA2mxdf652Jw-8" value="+AnimationExamples" style="text;strokeColor=none;fillColor=none;align=left;verticalAlign=top;spacingLeft=4;spacingRight=4;overflow=hidden;rotatable=0;points=[[0,0.5],[1,0.5]];portConstraint=eastwest;" vertex="1" parent="pIJCKVKDnA2mxdf652Jw-0">
          <mxGeometry y="199.63157894736844" width="171" height="25" as="geometry" />
        </mxCell>
        <mxCell id="pIJCKVKDnA2mxdf652Jw-9" style="line;strokeWidth=1;fillColor=none;align=left;verticalAlign=middle;spacingTop=-1;spacingLeft=3;spacingRight=3;rotatable=0;labelPosition=right;points=[];portConstraint=eastwest;strokeColor=inherit;" vertex="1" parent="pIJCKVKDnA2mxdf652Jw-0">
          <mxGeometry y="224.63157894736844" width="171" height="12" as="geometry" />
        </mxCell>
        <mxCell id="pIJCKVKDnA2mxdf652Jw-10" value="SkeletalMesh" style="swimlane;fontStyle=1;align=center;verticalAlign=top;childLayout=stackLayout;horizontal=1;startSize=25;horizontalStack=0;resizeParent=1;resizeParentMax=0;resizeLast=0;collapsible=0;marginBottom=0;" vertex="1" parent="WIyWlLk6GJQsqaUBKTNV-1">
          <mxGeometry x="120" y="831" width="112" height="38" as="geometry" />
        </mxCell>
        <mxCell id="pIJCKVKDnA2mxdf652Jw-11" style="line;strokeWidth=1;fillColor=none;align=left;verticalAlign=middle;spacingTop=-1;spacingLeft=3;spacingRight=3;rotatable=0;labelPosition=right;points=[];portConstraint=eastwest;strokeColor=inherit;" vertex="1" parent="pIJCKVKDnA2mxdf652Jw-10">
          <mxGeometry y="25" width="112" height="13" as="geometry" />
        </mxCell>
        <mxCell id="pIJCKVKDnA2mxdf652Jw-12" value="AnimationBlueprint" style="swimlane;fontStyle=1;align=center;verticalAlign=top;childLayout=stackLayout;horizontal=1;startSize=25;horizontalStack=0;resizeParent=1;resizeParentMax=0;resizeLast=0;collapsible=0;marginBottom=0;" vertex="1" parent="WIyWlLk6GJQsqaUBKTNV-1">
          <mxGeometry x="499" y="831" width="163" height="38" as="geometry" />
        </mxCell>
        <mxCell id="pIJCKVKDnA2mxdf652Jw-13" style="line;strokeWidth=1;fillColor=none;align=left;verticalAlign=middle;spacingTop=-1;spacingLeft=3;spacingRight=3;rotatable=0;labelPosition=right;points=[];portConstraint=eastwest;strokeColor=inherit;" vertex="1" parent="pIJCKVKDnA2mxdf652Jw-12">
          <mxGeometry y="25" width="163" height="13" as="geometry" />
        </mxCell>
        <mxCell id="pIJCKVKDnA2mxdf652Jw-14" value="AnimationSequences" style="swimlane;fontStyle=1;align=center;verticalAlign=top;childLayout=stackLayout;horizontal=1;startSize=25;horizontalStack=0;resizeParent=1;resizeParentMax=0;resizeLast=0;collapsible=0;marginBottom=0;" vertex="1" parent="WIyWlLk6GJQsqaUBKTNV-1">
          <mxGeometry x="726" y="1085" width="171" height="38" as="geometry" />
        </mxCell>
        <mxCell id="pIJCKVKDnA2mxdf652Jw-15" style="line;strokeWidth=1;fillColor=none;align=left;verticalAlign=middle;spacingTop=-1;spacingLeft=3;spacingRight=3;rotatable=0;labelPosition=right;points=[];portConstraint=eastwest;strokeColor=inherit;" vertex="1" parent="pIJCKVKDnA2mxdf652Jw-14">
          <mxGeometry y="25" width="171" height="13" as="geometry" />
        </mxCell>
        <mxCell id="pIJCKVKDnA2mxdf652Jw-16" value="StateMachines" style="swimlane;fontStyle=1;align=center;verticalAlign=top;childLayout=stackLayout;horizontal=1;startSize=25;horizontalStack=0;resizeParent=1;resizeParentMax=0;resizeLast=0;collapsible=0;marginBottom=0;" vertex="1" parent="WIyWlLk6GJQsqaUBKTNV-1">
          <mxGeometry x="163" y="958" width="122" height="38" as="geometry" />
        </mxCell>
        <mxCell id="pIJCKVKDnA2mxdf652Jw-17" style="line;strokeWidth=1;fillColor=none;align=left;verticalAlign=middle;spacingTop=-1;spacingLeft=3;spacingRight=3;rotatable=0;labelPosition=right;points=[];portConstraint=eastwest;strokeColor=inherit;" vertex="1" parent="pIJCKVKDnA2mxdf652Jw-16">
          <mxGeometry y="25" width="122" height="13" as="geometry" />
        </mxCell>
        <mxCell id="pIJCKVKDnA2mxdf652Jw-18" value="AnimationNotifies" style="swimlane;fontStyle=1;align=center;verticalAlign=top;childLayout=stackLayout;horizontal=1;startSize=25;horizontalStack=0;resizeParent=1;resizeParentMax=0;resizeLast=0;collapsible=0;marginBottom=0;" vertex="1" parent="WIyWlLk6GJQsqaUBKTNV-1">
          <mxGeometry x="982" y="1169" width="150" height="38" as="geometry" />
        </mxCell>
        <mxCell id="pIJCKVKDnA2mxdf652Jw-19" style="line;strokeWidth=1;fillColor=none;align=left;verticalAlign=middle;spacingTop=-1;spacingLeft=3;spacingRight=3;rotatable=0;labelPosition=right;points=[];portConstraint=eastwest;strokeColor=inherit;" vertex="1" parent="pIJCKVKDnA2mxdf652Jw-18">
          <mxGeometry y="25" width="150" height="13" as="geometry" />
        </mxCell>
        <mxCell id="pIJCKVKDnA2mxdf652Jw-20" value="AnimationLayers" style="swimlane;fontStyle=1;align=center;verticalAlign=top;childLayout=stackLayout;horizontal=1;startSize=25;horizontalStack=0;resizeParent=1;resizeParentMax=0;resizeLast=0;collapsible=0;marginBottom=0;" vertex="1" parent="WIyWlLk6GJQsqaUBKTNV-1">
          <mxGeometry x="335" y="958" width="141" height="38" as="geometry" />
        </mxCell>
        <mxCell id="pIJCKVKDnA2mxdf652Jw-21" style="line;strokeWidth=1;fillColor=none;align=left;verticalAlign=middle;spacingTop=-1;spacingLeft=3;spacingRight=3;rotatable=0;labelPosition=right;points=[];portConstraint=eastwest;strokeColor=inherit;" vertex="1" parent="pIJCKVKDnA2mxdf652Jw-20">
          <mxGeometry y="25" width="141" height="13" as="geometry" />
        </mxCell>
        <mxCell id="pIJCKVKDnA2mxdf652Jw-22" value="AnimationMontages" style="swimlane;fontStyle=1;align=center;verticalAlign=top;childLayout=stackLayout;horizontal=1;startSize=25;horizontalStack=0;resizeParent=1;resizeParentMax=0;resizeLast=0;collapsible=0;marginBottom=0;" vertex="1" parent="WIyWlLk6GJQsqaUBKTNV-1">
          <mxGeometry x="572" y="958" width="162" height="38" as="geometry" />
        </mxCell>
        <mxCell id="pIJCKVKDnA2mxdf652Jw-23" style="line;strokeWidth=1;fillColor=none;align=left;verticalAlign=middle;spacingTop=-1;spacingLeft=3;spacingRight=3;rotatable=0;labelPosition=right;points=[];portConstraint=eastwest;strokeColor=inherit;" vertex="1" parent="pIJCKVKDnA2mxdf652Jw-22">
          <mxGeometry y="25" width="162" height="13" as="geometry" />
        </mxCell>
        <mxCell id="pIJCKVKDnA2mxdf652Jw-24" value="AnimationExamples" style="swimlane;fontStyle=1;align=center;verticalAlign=top;childLayout=stackLayout;horizontal=1;startSize=25;horizontalStack=0;resizeParent=1;resizeParentMax=0;resizeLast=0;collapsible=0;marginBottom=0;" vertex="1" parent="WIyWlLk6GJQsqaUBKTNV-1">
          <mxGeometry x="819" y="831" width="163" height="38" as="geometry" />
        </mxCell>
        <mxCell id="pIJCKVKDnA2mxdf652Jw-25" style="line;strokeWidth=1;fillColor=none;align=left;verticalAlign=middle;spacingTop=-1;spacingLeft=3;spacingRight=3;rotatable=0;labelPosition=right;points=[];portConstraint=eastwest;strokeColor=inherit;" vertex="1" parent="pIJCKVKDnA2mxdf652Jw-24">
          <mxGeometry y="25" width="163" height="13" as="geometry" />
        </mxCell>
        <mxCell id="pIJCKVKDnA2mxdf652Jw-26" value="AnimationDriven" style="swimlane;fontStyle=1;align=center;verticalAlign=top;childLayout=stackLayout;horizontal=1;startSize=25;horizontalStack=0;resizeParent=1;resizeParentMax=0;resizeLast=0;collapsible=0;marginBottom=0;" vertex="1" parent="WIyWlLk6GJQsqaUBKTNV-1">
          <mxGeometry x="830" y="958" width="141" height="38" as="geometry" />
        </mxCell>
        <mxCell id="pIJCKVKDnA2mxdf652Jw-27" style="line;strokeWidth=1;fillColor=none;align=left;verticalAlign=middle;spacingTop=-1;spacingLeft=3;spacingRight=3;rotatable=0;labelPosition=right;points=[];portConstraint=eastwest;strokeColor=inherit;" vertex="1" parent="pIJCKVKDnA2mxdf652Jw-26">
          <mxGeometry y="25" width="141" height="13" as="geometry" />
        </mxCell>
        <mxCell id="pIJCKVKDnA2mxdf652Jw-28" value="contains" style="curved=1;startArrow=diamondThin;startSize=14;startFill=1;endArrow=none;exitX=0.002158717105263158;exitY=0.615363013106341;entryX=0.5006277901785714;entryY=0;rounded=0;" edge="1" parent="WIyWlLk6GJQsqaUBKTNV-1" source="pIJCKVKDnA2mxdf652Jw-0" target="pIJCKVKDnA2mxdf652Jw-10">
          <mxGeometry relative="1" as="geometry">
            <Array as="points">
              <mxPoint x="176" y="797" />
            </Array>
          </mxGeometry>
        </mxCell>
        <mxCell id="pIJCKVKDnA2mxdf652Jw-29" value="1" style="edgeLabel;resizable=0;labelBackgroundColor=none;fontSize=12;align=right;verticalAlign=top;" vertex="1" parent="pIJCKVKDnA2mxdf652Jw-28">
          <mxGeometry x="-1" relative="1" as="geometry" />
        </mxCell>
        <mxCell id="pIJCKVKDnA2mxdf652Jw-30" value="1..*" style="edgeLabel;resizable=0;labelBackgroundColor=none;fontSize=12;align=left;verticalAlign=bottom;" vertex="1" parent="pIJCKVKDnA2mxdf652Jw-28">
          <mxGeometry x="1" relative="1" as="geometry" />
        </mxCell>
        <mxCell id="pIJCKVKDnA2mxdf652Jw-31" value="contains" style="curved=1;startArrow=diamondThin;startSize=14;startFill=1;endArrow=none;exitX=0.16977908434168215;exitY=1;entryX=0.495650402607362;entryY=0;rounded=0;" edge="1" parent="WIyWlLk6GJQsqaUBKTNV-1" source="pIJCKVKDnA2mxdf652Jw-0" target="pIJCKVKDnA2mxdf652Jw-12">
          <mxGeometry relative="1" as="geometry">
            <Array as="points">
              <mxPoint x="580" y="797" />
            </Array>
          </mxGeometry>
        </mxCell>
        <mxCell id="pIJCKVKDnA2mxdf652Jw-32" value="1" style="edgeLabel;resizable=0;labelBackgroundColor=none;fontSize=12;align=right;verticalAlign=top;" vertex="1" parent="pIJCKVKDnA2mxdf652Jw-31">
          <mxGeometry x="-1" relative="1" as="geometry" />
        </mxCell>
        <mxCell id="pIJCKVKDnA2mxdf652Jw-33" value="1..*" style="edgeLabel;resizable=0;labelBackgroundColor=none;fontSize=12;align=left;verticalAlign=bottom;" vertex="1" parent="pIJCKVKDnA2mxdf652Jw-31">
          <mxGeometry x="1" relative="1" as="geometry" />
        </mxCell>
        <mxCell id="pIJCKVKDnA2mxdf652Jw-34" value="contains" style="curved=1;startArrow=diamondThin;startSize=14;startFill=1;endArrow=none;exitX=1.0036207054093567;exitY=0.6513437633258756;entryX=1.0036778143274854;entryY=0.04136519034191734;rounded=0;" edge="1" parent="WIyWlLk6GJQsqaUBKTNV-1" source="pIJCKVKDnA2mxdf652Jw-0" target="pIJCKVKDnA2mxdf652Jw-14">
          <mxGeometry relative="1" as="geometry">
            <Array as="points">
              <mxPoint x="1017" y="797" />
              <mxPoint x="1017" y="1051" />
            </Array>
          </mxGeometry>
        </mxCell>
        <mxCell id="pIJCKVKDnA2mxdf652Jw-35" value="1" style="edgeLabel;resizable=0;labelBackgroundColor=none;fontSize=12;align=right;verticalAlign=top;" vertex="1" parent="pIJCKVKDnA2mxdf652Jw-34">
          <mxGeometry x="-1" relative="1" as="geometry" />
        </mxCell>
        <mxCell id="pIJCKVKDnA2mxdf652Jw-36" value="1..*" style="edgeLabel;resizable=0;labelBackgroundColor=none;fontSize=12;align=left;verticalAlign=bottom;" vertex="1" parent="pIJCKVKDnA2mxdf652Jw-34">
          <mxGeometry x="1" relative="1" as="geometry" />
        </mxCell>
        <mxCell id="pIJCKVKDnA2mxdf652Jw-37" value="contains" style="curved=1;startArrow=diamondThin;startSize=14;startFill=1;endArrow=none;exitX=0.002158717105263158;exitY=0.65467862966177;entryX=0.775277047768491;entryY=0;rounded=0;" edge="1" parent="WIyWlLk6GJQsqaUBKTNV-1" source="pIJCKVKDnA2mxdf652Jw-0" target="pIJCKVKDnA2mxdf652Jw-16">
          <mxGeometry relative="1" as="geometry">
            <Array as="points">
              <mxPoint x="297" y="797" />
              <mxPoint x="297" y="924" />
            </Array>
          </mxGeometry>
        </mxCell>
        <mxCell id="pIJCKVKDnA2mxdf652Jw-38" value="1" style="edgeLabel;resizable=0;labelBackgroundColor=none;fontSize=12;align=right;verticalAlign=top;" vertex="1" parent="pIJCKVKDnA2mxdf652Jw-37">
          <mxGeometry x="-1" relative="1" as="geometry" />
        </mxCell>
        <mxCell id="pIJCKVKDnA2mxdf652Jw-39" value="1..*" style="edgeLabel;resizable=0;labelBackgroundColor=none;fontSize=12;align=left;verticalAlign=bottom;" vertex="1" parent="pIJCKVKDnA2mxdf652Jw-37">
          <mxGeometry x="1" relative="1" as="geometry" />
        </mxCell>
        <mxCell id="pIJCKVKDnA2mxdf652Jw-40" value="contains" style="curved=1;startArrow=diamondThin;startSize=14;startFill=1;endArrow=none;exitX=1.0036207054093567;exitY=0.6102312137027227;entryX=0.6524864665354327;entryY=0;rounded=0;" edge="1" parent="WIyWlLk6GJQsqaUBKTNV-1" source="pIJCKVKDnA2mxdf652Jw-0" target="pIJCKVKDnA2mxdf652Jw-18">
          <mxGeometry x="-0.117" y="-63" relative="1" as="geometry">
            <Array as="points">
              <mxPoint x="1152" y="797" />
              <mxPoint x="1152" y="1178" />
            </Array>
            <mxPoint as="offset" />
          </mxGeometry>
        </mxCell>
        <mxCell id="pIJCKVKDnA2mxdf652Jw-41" value="1" style="edgeLabel;resizable=0;labelBackgroundColor=none;fontSize=12;align=left;verticalAlign=top;" vertex="1" parent="pIJCKVKDnA2mxdf652Jw-40">
          <mxGeometry x="-1" relative="1" as="geometry" />
        </mxCell>
        <mxCell id="pIJCKVKDnA2mxdf652Jw-42" value="1..*" style="edgeLabel;resizable=0;labelBackgroundColor=none;fontSize=12;align=right;verticalAlign=bottom;" vertex="1" parent="pIJCKVKDnA2mxdf652Jw-40">
          <mxGeometry x="1" relative="1" as="geometry" />
        </mxCell>
        <mxCell id="pIJCKVKDnA2mxdf652Jw-43" value="contains" style="curved=1;startArrow=diamondThin;startSize=14;startFill=1;endArrow=none;exitX=0.002158717105263158;exitY=0.7505328829186402;entryX=0.5916797333095998;entryY=0;rounded=0;" edge="1" parent="WIyWlLk6GJQsqaUBKTNV-1" source="pIJCKVKDnA2mxdf652Jw-0" target="pIJCKVKDnA2mxdf652Jw-20">
          <mxGeometry relative="1" as="geometry">
            <Array as="points">
              <mxPoint x="433" y="797" />
              <mxPoint x="433" y="924" />
            </Array>
          </mxGeometry>
        </mxCell>
        <mxCell id="pIJCKVKDnA2mxdf652Jw-44" value="1" style="edgeLabel;resizable=0;labelBackgroundColor=none;fontSize=12;align=right;verticalAlign=top;" vertex="1" parent="pIJCKVKDnA2mxdf652Jw-43">
          <mxGeometry x="-1" relative="1" as="geometry" />
        </mxCell>
        <mxCell id="pIJCKVKDnA2mxdf652Jw-45" value="1..*" style="edgeLabel;resizable=0;labelBackgroundColor=none;fontSize=12;align=left;verticalAlign=bottom;" vertex="1" parent="pIJCKVKDnA2mxdf652Jw-43">
          <mxGeometry x="1" relative="1" as="geometry" />
        </mxCell>
        <mxCell id="pIJCKVKDnA2mxdf652Jw-46" value="contains" style="curved=1;startArrow=diamondThin;startSize=14;startFill=1;endArrow=none;exitX=0.8360003381729374;exitY=1;entryX=0.7063301793222024;entryY=0;rounded=0;" edge="1" parent="WIyWlLk6GJQsqaUBKTNV-1" source="pIJCKVKDnA2mxdf652Jw-0" target="pIJCKVKDnA2mxdf652Jw-22">
          <mxGeometry relative="1" as="geometry">
            <Array as="points">
              <mxPoint x="726" y="797" />
              <mxPoint x="726" y="924" />
            </Array>
          </mxGeometry>
        </mxCell>
        <mxCell id="pIJCKVKDnA2mxdf652Jw-47" value="1" style="edgeLabel;resizable=0;labelBackgroundColor=none;fontSize=12;align=right;verticalAlign=top;" vertex="1" parent="pIJCKVKDnA2mxdf652Jw-46">
          <mxGeometry x="-1" relative="1" as="geometry" />
        </mxCell>
        <mxCell id="pIJCKVKDnA2mxdf652Jw-48" value="1..*" style="edgeLabel;resizable=0;labelBackgroundColor=none;fontSize=12;align=left;verticalAlign=bottom;" vertex="1" parent="pIJCKVKDnA2mxdf652Jw-46">
          <mxGeometry x="1" relative="1" as="geometry" />
        </mxCell>
        <mxCell id="pIJCKVKDnA2mxdf652Jw-49" value="contains" style="curved=1;startArrow=diamondThin;startSize=14;startFill=1;endArrow=none;exitX=1.0036207054093567;exitY=0.7225744868633411;entryX=0.49809480444785276;entryY=0;rounded=0;" edge="1" parent="WIyWlLk6GJQsqaUBKTNV-1" source="pIJCKVKDnA2mxdf652Jw-0" target="pIJCKVKDnA2mxdf652Jw-24">
          <mxGeometry relative="1" as="geometry">
            <Array as="points">
              <mxPoint x="900" y="797" />
            </Array>
          </mxGeometry>
        </mxCell>
        <mxCell id="pIJCKVKDnA2mxdf652Jw-50" value="1" style="edgeLabel;resizable=0;labelBackgroundColor=none;fontSize=12;align=left;verticalAlign=top;" vertex="1" parent="pIJCKVKDnA2mxdf652Jw-49">
          <mxGeometry x="-1" relative="1" as="geometry" />
        </mxCell>
        <mxCell id="pIJCKVKDnA2mxdf652Jw-51" value="1..*" style="edgeLabel;resizable=0;labelBackgroundColor=none;fontSize=12;align=right;verticalAlign=bottom;" vertex="1" parent="pIJCKVKDnA2mxdf652Jw-49">
          <mxGeometry x="1" relative="1" as="geometry" />
        </mxCell>
        <mxCell id="pIJCKVKDnA2mxdf652Jw-52" value="uses" style="curved=1;startArrow=diamondThin;startSize=14;startFill=1;endArrow=none;exitX=-0.0028398197852760737;exitY=0.7382901483270432;entryX=0.4352870718100555;entryY=0;rounded=0;" edge="1" parent="WIyWlLk6GJQsqaUBKTNV-1" source="pIJCKVKDnA2mxdf652Jw-12" target="pIJCKVKDnA2mxdf652Jw-16">
          <mxGeometry relative="1" as="geometry">
            <Array as="points">
              <mxPoint x="206" y="924" />
            </Array>
          </mxGeometry>
        </mxCell>
        <mxCell id="pIJCKVKDnA2mxdf652Jw-53" value="1" style="edgeLabel;resizable=0;labelBackgroundColor=none;fontSize=12;align=right;verticalAlign=top;" vertex="1" parent="pIJCKVKDnA2mxdf652Jw-52">
          <mxGeometry x="-1" relative="1" as="geometry" />
        </mxCell>
        <mxCell id="pIJCKVKDnA2mxdf652Jw-54" value="1..*" style="edgeLabel;resizable=0;labelBackgroundColor=none;fontSize=12;align=left;verticalAlign=bottom;" vertex="1" parent="pIJCKVKDnA2mxdf652Jw-52">
          <mxGeometry x="1" relative="1" as="geometry" />
        </mxCell>
        <mxCell id="pIJCKVKDnA2mxdf652Jw-55" value="uses" style="curved=1;startArrow=diamondThin;startSize=14;startFill=1;endArrow=none;exitX=-0.0028398197852760737;exitY=0.8601209488000137;entryX=0.26577868029960344;entryY=0;rounded=0;" edge="1" parent="WIyWlLk6GJQsqaUBKTNV-1" source="pIJCKVKDnA2mxdf652Jw-12" target="pIJCKVKDnA2mxdf652Jw-20">
          <mxGeometry relative="1" as="geometry">
            <Array as="points">
              <mxPoint x="333" y="924" />
            </Array>
          </mxGeometry>
        </mxCell>
        <mxCell id="pIJCKVKDnA2mxdf652Jw-56" value="1" style="edgeLabel;resizable=0;labelBackgroundColor=none;fontSize=12;align=right;verticalAlign=top;" vertex="1" parent="pIJCKVKDnA2mxdf652Jw-55">
          <mxGeometry x="-1" relative="1" as="geometry" />
        </mxCell>
        <mxCell id="pIJCKVKDnA2mxdf652Jw-57" value="1..*" style="edgeLabel;resizable=0;labelBackgroundColor=none;fontSize=12;align=left;verticalAlign=bottom;" vertex="1" parent="pIJCKVKDnA2mxdf652Jw-55">
          <mxGeometry x="1" relative="1" as="geometry" />
        </mxCell>
        <mxCell id="pIJCKVKDnA2mxdf652Jw-58" value="uses" style="curved=1;startArrow=diamondThin;startSize=14;startFill=1;endArrow=none;exitX=0.495650402607362;exitY=1;entryX=0.2935974827148342;entryY=0;rounded=0;" edge="1" parent="WIyWlLk6GJQsqaUBKTNV-1" source="pIJCKVKDnA2mxdf652Jw-12" target="pIJCKVKDnA2mxdf652Jw-22">
          <mxGeometry relative="1" as="geometry">
            <Array as="points">
              <mxPoint x="580" y="924" />
            </Array>
          </mxGeometry>
        </mxCell>
        <mxCell id="pIJCKVKDnA2mxdf652Jw-59" value="1" style="edgeLabel;resizable=0;labelBackgroundColor=none;fontSize=12;align=right;verticalAlign=top;" vertex="1" parent="pIJCKVKDnA2mxdf652Jw-58">
          <mxGeometry x="-1" relative="1" as="geometry" />
        </mxCell>
        <mxCell id="pIJCKVKDnA2mxdf652Jw-60" value="1..*" style="edgeLabel;resizable=0;labelBackgroundColor=none;fontSize=12;align=left;verticalAlign=bottom;" vertex="1" parent="pIJCKVKDnA2mxdf652Jw-58">
          <mxGeometry x="1" relative="1" as="geometry" />
        </mxCell>
        <mxCell id="pIJCKVKDnA2mxdf652Jw-61" value="uses" style="curved=1;startArrow=diamondThin;startSize=14;startFill=1;endArrow=none;exitX=0.994140625;exitY=0.6703615688555642;entryX=0.4997916666666667;entryY=0;rounded=0;" edge="1" parent="WIyWlLk6GJQsqaUBKTNV-1" source="pIJCKVKDnA2mxdf652Jw-12" target="pIJCKVKDnA2mxdf652Jw-18">
          <mxGeometry relative="1" as="geometry">
            <Array as="points">
              <mxPoint x="1102" y="924" />
            </Array>
          </mxGeometry>
        </mxCell>
        <mxCell id="pIJCKVKDnA2mxdf652Jw-62" value="1" style="edgeLabel;resizable=0;labelBackgroundColor=none;fontSize=12;align=left;verticalAlign=top;" vertex="1" parent="pIJCKVKDnA2mxdf652Jw-61">
          <mxGeometry x="-1" relative="1" as="geometry" />
        </mxCell>
        <mxCell id="pIJCKVKDnA2mxdf652Jw-63" value="1..*" style="edgeLabel;resizable=0;labelBackgroundColor=none;fontSize=12;align=right;verticalAlign=bottom;" vertex="1" parent="pIJCKVKDnA2mxdf652Jw-61">
          <mxGeometry x="1" relative="1" as="geometry" />
        </mxCell>
        <mxCell id="pIJCKVKDnA2mxdf652Jw-64" value="uses" style="curved=1;startArrow=diamondThin;startSize=14;startFill=1;endArrow=none;exitX=0.5023985745614035;exitY=1;entryX=-0.00013020833333333333;entryY=0.21695636425272566;rounded=0;" edge="1" parent="WIyWlLk6GJQsqaUBKTNV-1" source="pIJCKVKDnA2mxdf652Jw-14" target="pIJCKVKDnA2mxdf652Jw-18">
          <mxGeometry relative="1" as="geometry">
            <Array as="points">
              <mxPoint x="812" y="1178" />
            </Array>
          </mxGeometry>
        </mxCell>
        <mxCell id="pIJCKVKDnA2mxdf652Jw-65" value="1" style="edgeLabel;resizable=0;labelBackgroundColor=none;fontSize=12;align=left;verticalAlign=top;" vertex="1" parent="pIJCKVKDnA2mxdf652Jw-64">
          <mxGeometry x="-1" relative="1" as="geometry" />
        </mxCell>
        <mxCell id="pIJCKVKDnA2mxdf652Jw-66" value="1..*" style="edgeLabel;resizable=0;labelBackgroundColor=none;fontSize=12;align=right;verticalAlign=bottom;" vertex="1" parent="pIJCKVKDnA2mxdf652Jw-64">
          <mxGeometry x="1" relative="1" as="geometry" />
        </mxCell>
        <mxCell id="pIJCKVKDnA2mxdf652Jw-67" value="combines" style="curved=1;startArrow=diamondThin;startSize=14;startFill=1;endArrow=none;exitX=0.49996383101851855;exitY=1;entryX=0.07797858532486097;entryY=0;rounded=0;" edge="1" parent="WIyWlLk6GJQsqaUBKTNV-1" source="pIJCKVKDnA2mxdf652Jw-22" target="pIJCKVKDnA2mxdf652Jw-14">
          <mxGeometry relative="1" as="geometry">
            <Array as="points">
              <mxPoint x="653" y="1051" />
            </Array>
          </mxGeometry>
        </mxCell>
        <mxCell id="pIJCKVKDnA2mxdf652Jw-68" value="1" style="edgeLabel;resizable=0;labelBackgroundColor=none;fontSize=12;align=right;verticalAlign=top;" vertex="1" parent="pIJCKVKDnA2mxdf652Jw-67">
          <mxGeometry x="-1" relative="1" as="geometry" />
        </mxCell>
        <mxCell id="pIJCKVKDnA2mxdf652Jw-69" value="1..*" style="edgeLabel;resizable=0;labelBackgroundColor=none;fontSize=12;align=left;verticalAlign=bottom;" vertex="1" parent="pIJCKVKDnA2mxdf652Jw-67">
          <mxGeometry x="1" relative="1" as="geometry" />
        </mxCell>
        <mxCell id="pIJCKVKDnA2mxdf652Jw-70" value="demonstrates" style="curved=1;startArrow=diamondThin;startSize=14;startFill=1;endArrow=none;exitX=0.49809480444785276;exitY=1;entryX=0.497797539893617;entryY=0;rounded=0;" edge="1" parent="WIyWlLk6GJQsqaUBKTNV-1" source="pIJCKVKDnA2mxdf652Jw-24" target="pIJCKVKDnA2mxdf652Jw-26">
          <mxGeometry relative="1" as="geometry">
            <Array as="points" />
          </mxGeometry>
        </mxCell>
        <mxCell id="pIJCKVKDnA2mxdf652Jw-71" value="1" style="edgeLabel;resizable=0;labelBackgroundColor=none;fontSize=12;align=right;verticalAlign=top;" vertex="1" parent="pIJCKVKDnA2mxdf652Jw-70">
          <mxGeometry x="-1" relative="1" as="geometry" />
        </mxCell>
        <mxCell id="pIJCKVKDnA2mxdf652Jw-72" value="1..*" style="edgeLabel;resizable=0;labelBackgroundColor=none;fontSize=12;align=left;verticalAlign=bottom;" vertex="1" parent="pIJCKVKDnA2mxdf652Jw-70">
          <mxGeometry x="1" relative="1" as="geometry" />
        </mxCell>
      </root>
    </mxGraphModel>
  </diagram>
</mxfile>
